/* XPM */
static char *result[] = {
/* columns rows colors chars-per-pixel */
"64 64 212 2 ",
"   c #2E3618",
".  c #3D2E24",
"X  c #263421",
"o  c #293624",
"O  c #2C3C26",
"+  c #2E3E29",
"@  c #3B3531",
"#  c #482F21",
"$  c #453325",
"%  c #4C3323",
"&  c #4D3B25",
"*  c #473428",
"=  c #493928",
"-  c #513624",
";  c #563A27",
":  c #583C27",
">  c #563C29",
",  c #5A3E29",
"<  c #493E36",
"1  c #274513",
"2  c #2B441B",
"3  c #2F4C1C",
"4  c #314D1E",
"5  c #2F5516",
"6  c #34541E",
"7  c #33581A",
"8  c #3B671D",
"9  c #2E4027",
"0  c #2F4129",
"q  c #324E20",
"w  c #32432A",
"e  c #365422",
"r  c #385724",
"t  c #395B24",
"y  c #3A5B24",
"u  c #3D6324",
"i  c #3F6923",
"p  c #3F6128",
"a  c #4E4627",
"s  c #534427",
"d  c #554529",
"f  c #5D412C",
"g  c #544D2A",
"h  c #5B4A2E",
"j  c #4E5929",
"k  c #54522A",
"l  c #59512D",
"z  c #555A2B",
"x  c #585B2E",
"c  c #4B423A",
"v  c #5B4433",
"b  c #544538",
"n  c #5D4A3B",
"m  c #575832",
"M  c #63442E",
"N  c #654731",
"B  c #664831",
"V  c #6C4C33",
"C  c #634D3C",
"Z  c #6A4F3B",
"A  c #714F35",
"S  c #6A5935",
"D  c #6D523D",
"F  c #735137",
"G  c #785437",
"H  c #765439",
"J  c #795539",
"K  c #7D593C",
"L  c #426A27",
"P  c #42652B",
"I  c #436A29",
"U  c #456D2A",
"Y  c #56672E",
"T  c #566B2D",
"R  c #47722A",
"E  c #4A742C",
"W  c #4D7C2D",
"Q  c #52782A",
"!  c #4D6B31",
"~  c #5B6432",
"^  c #556B31",
"/  c #4D7631",
"(  c #4E7A31",
")  c #557634",
"_  c #5E7335",
"`  c #527C33",
"'  c #5B7D3A",
"]  c #696B3E",
"[  c #4D4844",
"{  c #544B44",
"}  c #544D48",
"|  c #5D524A",
" . c #5A5857",
".. c #644F40",
"X. c #66564A",
"o. c #725641",
"O. c #775942",
"+. c #7A5C44",
"@. c #765D49",
"#. c #675D54",
"$. c #79624F",
"%. c #6A6159",
"&. c #6A625B",
"*. c #796453",
"=. c #796759",
"-. c #5E5F60",
";. c #656464",
":. c #6C6662",
">. c #69696A",
",. c #746C65",
"<. c #786F69",
"1. c #7D736B",
"2. c #7A7672",
"3. c #815C3E",
"4. c #855E41",
"5. c #866042",
"6. c #8B6344",
"7. c #896549",
"8. c #8D6A4E",
"9. c #906747",
"0. c #926847",
"q. c #926748",
"w. c #966B49",
"e. c #996D4B",
"r. c #9D714E",
"t. c #8D6E55",
"y. c #936D50",
"u. c #8D715A",
"i. c #9E7351",
"p. c #A1734F",
"a. c #A37551",
"s. c #A77853",
"d. c #AC7B56",
"f. c #AF7E58",
"g. c #B07E57",
"h. c #B07F58",
"j. c #84756A",
"k. c #827A74",
"l. c #827E7B",
"z. c #52842E",
"x. c #558B2E",
"c. c #55942C",
"v. c #57992D",
"b. c #548234",
"n. c #568B32",
"m. c #598D35",
"M. c #598839",
"N. c #579032",
"B. c #599333",
"V. c #5E9C35",
"C. c #5D9339",
"Z. c #5F9938",
"A. c #66813F",
"S. c #609E37",
"D. c #61963C",
"F. c #629C3B",
"G. c #669B3C",
"H. c #60A037",
"J. c #65A23C",
"K. c #68A73E",
"L. c #678A43",
"P. c #6A9344",
"I. c #689544",
"U. c #6B9B43",
"Y. c #76984D",
"T. c #749750",
"R. c #7A9B53",
"E. c #6BA442",
"W. c #6DAA43",
"Q. c #6EA148",
"!. c #75A24C",
"~. c #7AA64D",
"^. c #73AD4B",
"/. c #7CAA4F",
"(. c #71B147",
"). c #73B249",
"_. c #7BA352",
"`. c #7DAC52",
"'. c #7EB354",
"]. c #7FBD55",
"[. c #809D53",
"{. c #B4825A",
"}. c #B9855D",
"|. c #82AB57",
" X c #84B255",
".X c #86B259",
"XX c #8AB55D",
"oX c #8EBB5E",
"OX c #83807E",
"+X c #8EBB60",
"@X c #91BC63",
"#X c #80C056",
"$X c #94C264",
"%X c #9AC96A",
"&X c #848483",
"*X c #8A8887",
"=X c #928E8B",
"-X c #96918D",
";X c #99938F",
":X c #9B9A99",
">X c #A19F9E",
",X c #A2A09F",
"<X c #A8A7A7",
"1X c #B7B6B5",
"2X c #C4C4C4",
"3X c #CDCDCD",
"4X c #D3D3D3",
"5X c #DBDBDB",
"6X c #E2E2E2",
"7X c #EBEBEB",
"8X c #F3F3F3",
"9X c #FEFEFE",
/* pixels */
"X X X X o o O o o O O o O O o o X X X O O O O O 9 O 9 9 9 9 9 9 0 0 w w w w w w w w + O O O O O 0 w 9 9 w 0 + 0 O O + w + + + + ",
"    2 2 2 2 q 9 3 3 q q q q q 2 1 1 1 1 3 5 4 6 7 e e 7 t e e e t t p p y P ! P r r t 6 6 7 6 6 y y r 7 7 7 6 6 6 7 e y r e r r ",
"3 3 q e r e p p r y p y y p u e 5 5 5 7 u 8 u i I L L U U i i U U R / / / / ' / E E U L L 8 L L E E I I I I I I I L I ! ! U U U ",
"t p p p U p p p P E / E U R R i 8 8 8 i R R R R W E W z.b.( b.n.b.b.M.C.M.' M.M.W W W E R W W R ` ` E ` b.` W Q W W ` b.` / / / ",
"! ! ) ' ) ! ( ( ( ( M.` b.n.b.z.W z.z.z.m.m.z.x.n.c.m.I.Z.I.Y.!._.T._._.I.N.N.N.x.m.B.m.n.N.m.j - s g G.P.P.D.G.P.P.P.T.P.C.M.C.",
"M.' L.L.L.M.M.m.m.C.I.D.C.Z.Z.m.Z.S.F.C.J.J.S.V.S.S.F.(.(.(..XoX+X'.$X$X_.Z.H.Z.B.S.H.S.S.K.K.~ - ; k  X X|.~. X/./._..X`.U.F.U.",
"' ' L.L.L.M.M.C.m.D.U.Z.Z.Z.F.C.V.V.Z.D.J.K.S.S.J.S.J.^.).^.XX$X+X'.+X+X^.H.H.V.v.H.J.S.S.K.K.x : ; h [./.[.~././.~.|..X`.E.J.E.",
"/ ` L.P.L.! j j ! I.I.I.) Y Y ! m.B.n.x.B.B.z.T T T P.'.'./..X.X.X`.'.'.Q.F.H.F.) Y Y ) F.J.F.~ ; : k G.K.G.G.G.G.U.`..X|.A.^ T ",
"( b.R.R.R.d # $ m R.~.R.g % - k B.V.c.x.c.v.Q - ; - [.$X$X.XoX$X+X'.].].^.(.^.(.x - - h E.W.W.x : : g J.K.J.V.J.K.K.+X%X@X] & - ",
"( M.R._._.l # % m _.|.`.l - - j V.V.B.c.c.v.Q ; , : [.%X$X.X$X$X+X'.#X].^.).).).~ : > l W.).).~ : : g J.W.J.V.J.K.E.@X%X%X@.- ; ",
"E ` T.R.R.b * * m T.R.R.l ; - k m.B.m.z.x.x.Q : : : Y.XXXX|..X.X'.!.^.`.Q.E.K.K.x : : l U.E.Q.x - ; g J.K.J.C.F.B.G.XX@X@X] - > ",
"$ = a = a c } } c a s s > M M : s s s s s s s B A V h h v ~ W.W.Q.~ d g k S.S.V.k : : s d d d & % - a J.E.E.~ d d d h h h b  . .",
"$ $ # % % [ -. .{ - ; - f A A f ; : : : : , , V J V , : - x W.W.W.x ; ; k V.S.S.z ; : : : : : % ; : g E.(.(.~ ; : , : : ; { >.;.",
"# % % % % { -.-.{ - - - f F F f ; , : : : ; ; A J V , ; : x W.W.W.x : : k V.H.S.k : : , , : : % - ; g W.(.(.~ : : : : : ; } >.>.",
"N f s : f n ..X.n M N N B A H M % - - , N N N A J F n { b n _ _ _ a % % & T T T g , , , f M f N A A S _ _ _ S H J F B B B C X.@.",
"w.6.K K +.V V A H 4.6.6.J H J B ; ; - K 9.9.4.H J J #.;.;.} ; ; - % - - % ; ; ; f V H A F A A 4.w.w.4.; ; ; 6.{.g.a.6.q.6.+.H H ",
"r.w.4.5.5.F V F J q.q.q.J J J V ; : , 4.w.w.6.H J H &.>.>.| , : : % ; ; - : , ; v F J J J J J 5.e.w.4., , : q.}.}.g.w.w.w.K J J ",
"r.w.5.5.6.S V V J 4.6.6.K K K A : : : 4.q.q.4.H J H #.:.;.} > > , - : : - - ; - f F F J F H A 4.w.e.6., , : 6.{.g.d.w.w.w.K F F ",
"5.5.5.6.5.f > > M H G J e.g.f.w.A F A J J J J J J G v f f f B V V V A F M - - - ; , , , , , , K w.w.6.H A A 4.e.w.w.w.w.w.A , , ",
"4.5.5.7.6.M ; ; , F H J a.}.}.a.J J J J J J J J J J f : : f H H J J J J V ; ; ; ; , , : : : ; 3.w.e.6.H J J 4.w.w.w.w.e.w.V : : ",
"4.6.6.6.6.M ; - , G G G a.}.}.p.H J J H H H J H J H f : ; f H G H J J J V ; ; ; ; ; ; ; > ; ; J e.e.7.J J H 4.w.w.w.w.w.w.V > : ",
"J J K 3.K N M M A 0.q.9.p.a.p.w.H J G 3.4.3.K H J J J 3.3.5.6.8.q.K J J H 4.4.3.4.4.4.J N N N J 4.3.4.*.=.*.@.4.3.5.3.4.5.V M M ",
"A A A F F F H H 3.}.}.{.e.w.w.5.J J J 6.w.e.5.J J J a.}.}.}.}.}.}.4.H H 4.}.}.}.}.}.}.s.J J J J J G +.l.*X&X*.H J J H J J J J J ",
"A F A H F F J H 6.{.}.{.e.w.w.5.H J J 5.e.e.5.H J J a.}.}.}.}.}.{.5.H J 4.h.}.}.}.}.}.s.J J J J J J @.&X*X&X*.H J J H J J J J J ",
"H H J J J J J F 4.g.g.g.e.w.e.5.J J G 5.w.9.5.H K H r.{.{.{.{.{.g.4.F F 3.f.{.{.g.g.g.a.J H J J G o.+.k.&XR.$.J K J K J K J J J ",
"a.s.s.s.s.3.J J J 3.K K 6.w.w.w.6.q.6.K J J J H G H 7.e.w.w.w.w.w.B , , B w.e.9.4.3.4.J J J H 4.q.q.q.y.t.8.i.{.d.d.f.d.d.5.H J ",
"h.h.h.}.{.4.H J J J J H 6.w.w.e.w.e.w.J J J K H K G 6.w.w.w.w.w.w.B : : M 9.w.w.J J J J J J H 5.q.e.e.e.y.q.s.}.}.}.}.}.}.6.H J ",
"h.}.h.}.{.3.H J J J J F 6.e.w.e.w.w.w.K J H H H G G 6.e.w.w.w.w.w.M : ; N w.w.w.3.J J J H J H 6.e.e.q.r.q.q.s.{.}.}.}.}.}.6.G J ",
"s.p.w.w.w.3.H J J 3.3.3.3.3.3.3.J G H H F v n n n n n ....n 5.w.4.v n b n C C ..< M N V J J G 6.q.w.q.4.4.3.w.s.s.r.w.w.e.3.H H ",
"q.4.A J F J J J 3.q.w.w.J G J B ; ; , V V 2.5X5X5X5X5X5X5X=XH w.H :X5X5X5X5X5X5XOX# : , G J G 4.e.w.6.G H H 4.w.w.6.H G H K J H ",
"w.4.J J J J J G K w.w.w.K J J V : , : V B =X9X9X9X9X9X9X9X>XF w.C 2X9X9X9X9X9X9X,X# , f J J G 4.w.e.6.G G G 5.w.w.9.J K J J K H ",
"q.3.G G A J J J J q.q.q.K J J V : , , V V -X9X9X9X9X9X9X9X<XF 9.n 3X9X9X9X9X9X9X2X# , f A H A 3.q.q.4.J J H 4.0.0.5.F F F G J H ",
"G V , , , 3.9.9.5.J J J 3.9.0.3.A F A e.w.;X9X9X9X8X:X&X*X#.M J X.6X9X9X8X7X9X9X4X< F V f , , f f f M H H K H K H F , , , J q.6.",
"K V : , , 3.w.w.5.F J G 6.e.e.6.J J J s.a.;X9X9X9X7X< V V V G H | 8X9X9X2X<X9X9X7XX.J V : : > , : : , H K H H H J A : : : J e.e.",
"G B : , , 3.w.e.5.G J J 6.e.e.5.H J J s.i.;X9X9X9X7Xc H K H H D <.9X9X9X:X2.9X9X8X&.H V ; : : > : : , G H H H H G A : : : J e.w.",
"0.3.M M M 6.e.w.5.J J J 3.3.5.+.*.*.*.y.6.-X9X9X9X7Xc M M V 9.J &X9X9X9X*X<.9X9X9X2.F +.K 3.K V M M B 6.9.9.9.9.9.5.N h M K w.e.",
"}.p.J J H 6.w.w.5.J J J H H G @.&X*XOXu.K -X9X9X9X8X&.[ } < d.9.:X9X9X9X2.;.9X9X9X:XJ e.{.{.}.6.J J 4.{.}.}.}.}.}.d.J J H 4.e.w.",
"}.p.J J J 6.w.w.5.J J G G G J $.&X*X&Xu.3.-X9X9X9X9X8X7X7X2.a.7.1X9X9X8X#.[ 7X9X9X<XV e.}.}.}.6.J J 3.{.}.}.}.}.}.s.K J J 4.e.w.",
"{.r.J J G 5.0.0.5.G J J H H F @.l.l.2.t.3.-X9X9X9X9X9X9X9Xl.i.o.2X9X9X8X#.c 7X9X9X3XD e.f.g.{.6.J K 3.d.{.{.{.{.{.a.J J J 3.q.0.",
"w.5.G G J J J J K 9.6.6.B : f M o.O.+.7.4.-X9X9X9X9X7X6X6X2.5.o.5X9X9X6X| } 5X9X9X5X{ 6.K K K e.d.d.a.w.w.w.9.w.w.q.J J J J J J ",
"w.5.G G G J J H K w.e.0.B : : f J J J 5.4.=X9X9X9X8X .{ ..b 5.#.7X9X9X4Xb [ 2X9X9X7X%.5.G H H e.}.}.{.0.w.w.w.w.w.6.G J J J J G ",
"e.5.H G H H J J K w.w.w.M ; : f H J H 6.4.=X9X9X9X6X< H J 3.q.&.8X9X9X6X;.;.4X9X9X9X,.3.G H H r.}.}.d.w.e.w.w.e.e.6.H J H J J J ",
"3.3.3.3.K V B B V 5.5.3.K 3.3.3.q.6.6.4.F -X9X9X9X7Xc F J J H OX9X9X9X9X9X8X9X9X9X9X*XA 6.q.6.e.s.p.r.w.w.w.6.3.3.3.3.3.3.A B B ",
"J K w.w.0.B : : f G H H p.}.}.}.}.}.}.3.N =X9X9X9X7Xc F J G f *X9X9X9X9X9X9X9X9X9X9X>Xf {.}.}.r.0.w.w.w.e.w.K H J K 0.w.w.V : ; ",
"G 3.w.w.0.M : : f H J J a.}.}.{.}.}.{.4.B =X9X9X9X7X:.X.#.| . <X9X9X9X8X1X<X6X9X9X9X1Xv }.}.}.r.w.w.w.w.w.w.K H J J 0.w.w.V : : ",
"J J 9.w.9.B : f M J J J a.{.{.{.{.{.g.4.B =X9X9X9X9X8X7X7X3X@ 2X9X9X9X3X= % >X9X9X9X4Xb g.{.{.e.0.0.0.0.w.9.K H J J q.0.0.V , f ",
"J G J J J 3.6.5.3.H J J 6.w.w.w.w.w.w.a.w.-X9X9X9X9X9X9X9X5X@ 3X9X9X9X2X= N *X9X9X9X6X} w.w.w.3.J J H o.o.o.H J J J J K G 3.6.5.",
"G J J J J 6.e.e.5.G J J 6.w.w.w.w.w.w.d.i.-X8X9X9X8X9X8X9X4X .5X9X8X9X<X* B 2.9X9X8X7X&.w.w.w.K J H H o.o.o.H J J J H J H 5.e.e.",
"H H J J J 6.w.e.4.G G H 4.w.w.w.w.w.w.d.a.@.j.,.,.,.:.:.&.&.b j.j.,.:.[ % V b ,.<.1.j.c w.w.w.K J J H o.o.o.H H J J K J H 3.e.e.",
"6.3.B M B J 4.4.3.3.3.3.q.w.w.w.w.w.w.0.e.0.5.F F F V V B H q.q.9.K J J 3.7.6.5.G A A G 3.4.4.A B B B D D F +.0.q.5.B B B J 5.3.",
"{.q.: : : V H H 3.w.w.w.w.w.w.w.w.w.w.J H H H J J J 6.w.w.6.G J H a.}.}.}.{.}.{.H - : , G J H f ; ; , G J J r.}.}.a., : : B J J ",
"{.q.; : : V J J 3.q.w.w.w.w.w.w.w.w.w.K H J J J J J 5.e.e.5.J J H a.}.}.}.}.}.}.H : , , H J J h : , , G J J r.}.}.a., , : B J J ",
"d.6., , , A J H 3.w.w.w.q.0.9.9.w.q.9.K J J J J H H 5.w.w.3.J J J i.{.{.{.{.{.g.H , , f K J J M : , f H G H e.{.{.a.M , , V J J ",
"6.7.r.p.r.3.J J 3.w.w.w.V M M M J J G 3.6.6.q.6.6.6.J J J J J J J 6.w.w.w.w.w.w.G V A o.2.2.2.@.V F H 6.9.6.0.w.w.w.a.a.s.5.H G ",
"6.q.d.{.g.3.H H 3.9.w.q.M : : , H J J 6.e.e.e.w.e.w.J J J J J J H 6.w.w.w.w.w.w.K J J @.OX*X&X$.J K H 0.w.w.w.w.w.w.}.}.}.9.H H ",
"5.q.d.g.g.3.H H 3.0.q.0.M : : f H J J 5.w.w.w.w.e.w.K J J J J J J 6.e.w.e.w.w.w.K H J +.&X*X&X$.G G J 0.w.w.w.e.w.w.h.}.}.6.A H ",
"J J w.r.r.3.K J 3.e.p.p.3.3.G G J J J 0.r.a.w.4.5.4.K J G H B B B K 5.4.4.4.4.4.3.3.3.+.j.j.j.7.q.6.5.4.4.4.4.4.4.6.p.s.a.6.K J ",
"B A 5.5.6.6.q.q.e.{.{.}.}.}.}.p.J J H a.}.}.p.H H G G J J V ; : , B J H J J J J 5.e.w.w.w.w.w.s.}.}.d.J J J J H J J 0.w.0.0.9.0.",
"B D 5.5.6.6.7.q.w.{.{.}.}.}.}.p.H J J a.}.}.a.J H H J H J V , , : V J J J J J J 6.e.w.w.w.w.w.s.}.}.s.J J J J J G J w.w.w.w.9.6.",
"N V K 4.5.5.6.q.w.g.h.{.h.h.h.r.F H H a.{.{.r.J H K H G K V , , , V K J J J J H 3.q.0.q.w.w.w.p.{.{.a.J J J J J J J 6.6.6.7.9.0.",
"M f > ; , K 6.6.4.O.4.+.A B B N , f f 4.e.w.e.s.s.s.3.K J J 5.5.4.r.d.d.e.J J H N M M C k.l.k.u.e.e.q.H J J J J H F f f f J 6.6.",
"M , $ % * H 6.6.3.A A F f : : : ; , : 3.w.w.r.}.}.{.4.H J K w.w.w.d.}.}.a.J J J f ; ; C OX*X&Xu.w.w.6.J J J J J H V : > ; F 0.6.",
"h > $ % % H 4.4.3.A H F , : : : s , : 5.e.w.r.}.}.{.5.G J K w.e.9.f.}.}.a.J J J M ; > n OX*X&Xu.w.e.6.J J J J J J V > > - F 9.6.",
"> % . . . N o.D C , , v = % * % * * * Z O.o.+.8.w.8.D v N C o.o.o.7.y.8.4.v v v = * * < ;.;.;.@.O.O.H v v v n N v v * $ $ v D D "
};
