/* XPM */
static char *result[] = {
/* columns rows colors chars-per-pixel */
"64 64 211 2 ",
"   c #253B16",
".  c #3D2E24",
"X  c #263421",
"o  c #293624",
"O  c #2C3C26",
"+  c #2E3E29",
"@  c #393430",
"#  c #432E1E",
"$  c #482F21",
"%  c #453225",
"&  c #473726",
"*  c #4C3423",
"=  c #4E3A25",
"-  c #473428",
";  c #4B3A2C",
":  c #513624",
">  c #563A27",
",  c #583C27",
"<  c #563C29",
"1  c #5A3E29",
"2  c #4A3D33",
"3  c #513F32",
"4  c #274513",
"5  c #2B441B",
"6  c #2F4C1C",
"7  c #2F5516",
"8  c #34541E",
"9  c #33581A",
"0  c #3B671D",
"q  c #2E4027",
"w  c #2F4129",
"e  c #324E20",
"r  c #32432A",
"t  c #365422",
"y  c #385724",
"u  c #395B24",
"i  c #3A5B24",
"p  c #3D6324",
"a  c #3F6923",
"s  c #3F6128",
"d  c #4E4627",
"f  c #534427",
"g  c #554529",
"h  c #5D412C",
"j  c #544D2A",
"k  c #5B4A2E",
"l  c #4E5929",
"z  c #54522A",
"x  c #59512D",
"c  c #555A2B",
"v  c #585B2E",
"b  c #4D4239",
"n  c #554133",
"m  c #5C4534",
"M  c #54463B",
"N  c #544A39",
"B  c #5C4A3C",
"V  c #575832",
"C  c #62452E",
"Z  c #644731",
"A  c #664831",
"S  c #6C4C33",
"D  c #644C3A",
"F  c #6A4F3B",
"G  c #714F35",
"H  c #6A5935",
"J  c #6D523C",
"K  c #735137",
"L  c #785437",
"P  c #765439",
"I  c #795539",
"U  c #7D593C",
"Y  c #426A27",
"T  c #42652B",
"R  c #436A29",
"E  c #456D2A",
"W  c #56672E",
"Q  c #566B2D",
"!  c #47722A",
"~  c #4A742C",
"^  c #4D7C2D",
"/  c #52782A",
"(  c #4D6B31",
")  c #5B6432",
"_  c #556B31",
"`  c #4D7631",
"'  c #4E7A31",
"]  c #557634",
"[  c #5E7335",
"{  c #527C33",
"}  c #5B7D3A",
"|  c #696B3E",
" . c #4C4946",
".. c #564C44",
"X. c #524E4B",
"o. c #5D534C",
"O. c #585857",
"+. c #644F40",
"@. c #695749",
"#. c #735641",
"$. c #765942",
"%. c #7A5C44",
"&. c #765D49",
"*. c #675D55",
"=. c #695E55",
"-. c #79624F",
";. c #6C625A",
":. c #796453",
">. c #74665B",
",. c #796A5E",
"<. c #5E5F60",
"1. c #656464",
"2. c #68696A",
"3. c #726961",
"4. c #7D736B",
"5. c #7C7874",
"6. c #815B3E",
"7. c #855E41",
"8. c #866042",
"9. c #8B6444",
"0. c #876448",
"q. c #8D6A4E",
"w. c #906746",
"e. c #926847",
"r. c #926748",
"t. c #966B49",
"y. c #996D4B",
"u. c #9D714E",
"i. c #916F55",
"p. c #A1734F",
"a. c #A47551",
"s. c #A77853",
"d. c #AC7B55",
"f. c #AF7E58",
"g. c #B07E57",
"h. c #B07F58",
"j. c #867569",
"k. c #827A74",
"l. c #817E7B",
"z. c #52842E",
"x. c #558B2E",
"c. c #55942C",
"v. c #57992D",
"b. c #548234",
"n. c #568B32",
"m. c #598D35",
"M. c #598839",
"N. c #579032",
"B. c #599333",
"V. c #5E9C35",
"C. c #5D9339",
"Z. c #5F9938",
"A. c #66813F",
"S. c #609E37",
"D. c #61963C",
"F. c #629C3B",
"G. c #669B3C",
"H. c #60A037",
"J. c #65A23C",
"K. c #68A73E",
"L. c #678A43",
"P. c #6A9344",
"I. c #689544",
"U. c #6B9B43",
"Y. c #76984D",
"T. c #799A53",
"R. c #6BA442",
"E. c #6DAA43",
"W. c #6EA148",
"Q. c #75A24C",
"!. c #7AA64D",
"~. c #73AD4B",
"^. c #7CAA4F",
"/. c #71B147",
"(. c #73B249",
"). c #7BA352",
"_. c #7DAC52",
"`. c #7EB354",
"'. c #7FBD55",
"]. c #809D53",
"[. c #B4825A",
"{. c #B9855D",
"}. c #82AB57",
"|. c #84B255",
" X c #86B259",
".X c #8AB55D",
"XX c #8EBB5E",
"oX c #84817E",
"OX c #8EBB60",
"+X c #91BC63",
"@X c #80C056",
"#X c #94C264",
"$X c #9AC96A",
"%X c #848483",
"&X c #8A8989",
"*X c #93908E",
"=X c #9A9796",
"-X c #A19F9D",
";X c #A5A5A4",
":X c #A8A6A4",
">X c #AAA8A7",
",X c #ABAAAA",
"<X c #B1B0AF",
"1X c #B9B8B8",
"2X c #CBCBCB",
"3X c #D5D5D5",
"4X c #DCDCDC",
"5X c #E2E2E2",
"6X c #ECECEC",
"7X c #F3F3F3",
"8X c #FFFFFF",
/* pixels */
"X X o o o o o o o O o O o O O X X X X O O O q O q q q q w q q q w w r r r r r r + r r O O O O O r r + q r r + + + O + r + O + + ",
"      5 5 q 6 e 5 e e e e 6 8 5 4 4 4 4 6 7 6 8 9 8 8 t t t t u u t i T T s ( T u u u 8 8 9 8 9 i i t 9 8 9 9 9 8 8 t i y t y y ",
"6 6 t y y y s s y s s s u s p t 7 7 7 9 p 0 p a E Y Y ! E a a ! ! E ' ` ` ` } ` E ~ E Y 0 a Y Y ~ ~ R E E Y Y ! Y Y R ( ( T ( E ",
"u u l T R s s s R E ` ( E ! ! a 0 0 0 a ! ! ! ! ^ ~ ~ z.b.' b.b.b.b.M.C.M.b.M.} { ^ ^ ~ ~ ^ ! ~ { { ~ { b.z./ { / ^ { b.b.` ' ` ",
"( ( ] } _ ` ' ' ' b.b.b.b.n.b.z.z.z.z.z.m.m.x.x.c.n.m.F.F.I.U.).Q.T.).).I.m.N.N.x.B.B.n.n.N.n.l : = j G.P.G.A.G.G.P.P.Y.I.M.C.m.",
"M.} L.L.L.M.m.M.M.C.I.D.C.Z.Z.m.Z.Z.Z.C.K.J.V.V.H.V.F././.~. X#XOX`.OX#X).F.H.Z.B.H.H.S.Z.K.K.) > , j }.|.].K.|.}.^.).|._.U.Z.R.",
"} } L.P.L.M.M.C.C.C.U.Z.C.F.F.C.Z.Z.Z.C.J.J.V.V.H.H.R.~./.~..XXXOX X+X+X~.H.H.H.B.H.H.Z.H.E.K.v > > x }.|.}.Y.}.!.!._. X}.U.R.J.",
"` { L.L.L.( l l ( I.U.I._ W ( ( n.B.B.x.B.B.z.Q Q Q I.`._._. X.X`._.`.`.W.F.H.Z.] Q Q ] F.J.J.v > , j G.K.G.G.G.G.U.}. X}.L._ ( ",
"^ { T.T.T.j $ $ z ).).).j * : j B.V.c.x.c.v./ : > : ].$X+X XXX+XOX`.'.'.~.~.(.~.v : : x E.E.E.v , , x J.K.H.S.J.J.K.OX$X#X[ : : ",
"z.M.T.).).k $ * V ).}.).x : : z V.S.B.c.v.v./ , , > ].+X#X.X#X#XOX`.@X'.(.(.(.(.) , , x E././.) > , j J.K.J.S.J.J.R.+X$X$X&.: > ",
"~ { Y.T.T.N - : V Y.T.Y.x : : z m.m.n.x.x.x./ > 1 > Y.+X.X}.|.|._.!.~._.U.R.K.K.v > , x U.R.W.v : > j J.K.K.C.D.D.G..X+X+X| < < ",
"& & d = =  .X.X.b d g g < Z Z f f f f < f f , A G S k k k ) E.E.E.W n j c D.S.S.c > , , k g g * * : d J.R.R.) f f g C k k M O.O.",
"% $ $ * *  .<.O...: : : h G G 1 > > 1 > > 1 > G I S 1 , > x E./.E.V > , j V.S.S.z > , , , , > * : > g E./.~.) , , 1 , , : ..1.2.",
"% % * * *  .<.<. .: : > h K K C > 1 > 1 > > , G I S , , > v E.E.E.v , , z V.S.S.c > 1 1 , , > * > > j E.(.(.) > , , , , 1 ..2.2.",
"Z h , f 1 B +.@.D Z A A A P K Z : * : C A A A G I G D ..M N [ [ [ d * * d Q Q Q f , f 1 1 C C Z G G H [ [ [ H I I G A A Z D @.=.",
"y.9.I 6.%.G S G K 7.7.9.I K I A > : > I 9.r.7.G I I *.1.1.X.> > : * : : $ > > > h G L G K K K 7.y.y.7.> 1 : 9.h.g.s.9.9.w.6.I I ",
"p.r.8.8.8.J K G L w.r.w.I P I S > 1 > 7.y.y.7.I I I ;.2.2.o.1 1 < * > > * , 1 1 1 P I I I I I 8.t.t.6.1 1 > w.{.{.f.t.t.t.6.I I ",
"p.r.8.8.8.G S S P 9.9.w.6.I I G 1 1 1 7.r.r.7.I I I *.1.1...> 1 1 : 1 1 : > : : Z K K K K K G 8.t.y.8.h 1 1 9.[.h.d.t.t.e.U K K ",
"8.8.8.9.9.k , , h P P I y.g.g.y.G G G I I I I I I I m h g h S S A G G G Z : * : > 1 1 1 1 1 1 U t.y.w.G G G 7.y.y.t.t.t.t.K < 1 ",
"8.8.0.9.9.C : : 1 P P P s.{.{.p.I I I I I I I I L L h , 1 1 K I I I I I S , > > > 1 1 1 1 1 < I y.y.9.L I I 7.t.t.t.t.t.t.S , , ",
"7.9.9.7.9.C : > h L L L a.{.{.p.K I I L I K I I I I 1 > > h L I I I I I S > > : > > > > < , , U y.t.w.I I K 9.t.t.y.t.t.y.S 1 , ",
"U I 6.6.U Z C C G e.w.w.u.a.a.t.I I I 6.6.6.U I I I U 6.6.8.9.e.w.U I I I 7.7.7.7.7.7.I C Z C I 7.6.%.:.:.,.%.7.6.7.6.6.6.S C C ",
"G G G K K K K K 8.{.{.{.y.r.t.8.K I I 9.y.y.7.I I I a.{.{.{.{.{.{.7.K I 7.{.{.{.{.{.{.a.I I I I I L %.oX&X%X-.K I I I I I I I I ",
"G K K K P K I I 6.[.{.{.y.t.t.8.K U I 7.y.y.7.I I I a.{.{.{.{.[.{.7.I I 7.h.{.{.{.{.{.s.I I I I I I &.oX&X%X:.I I I I I I I I I ",
"K K I I I P P I 7.g.g.g.y.t.t.8.I I L 7.r.r.8.I I I u.[.[.[.[.[.g.6.L K U f.[.[.[.f.[.p.I I I I I I &.5.oXoX-.I I I I U I I I I ",
"a.s.s.d.s.7.P I I 6.7.I 9.t.t.t.w.w.9.U I I I I I L 9.y.y.t.t.t.t.A , , A t.t.t.7.U U U I I I 8.w.w.t.t.q.q.u.[.d.f.f.d.f.8.I I ",
"h.h.h.h.h.7.I I P I P P 9.t.t.t.y.t.t.U I I I I I I 9.y.t.t.t.t.t.A , , C r.t.t.U I I I I I P 8.y.t.t.t.t.t.s.{.{.{.{.{.{.9.L I ",
"{.h.{.{.h.7.L I I P P P 9.y.t.y.t.t.r.U I I I I I L 9.y.t.t.t.y.t.C , , A w.9.9.U I I I I I P 8.y.t.t.t.t.t.a.{.{.{.{.{.{.9.L I ",
"s.u.t.t.t.6.L I I 6.6.6.6.6.6.6.L I K m B B B n S I D B D +.B U y.I G m n *.4.4.o.; < A I I I 8.t.t.e.7.7.6.t.a.s.u.y.y.y.%.L I ",
"t.7.L I P P I I 6.t.t.t.U L L S > , > o.2X4X4X;Xg I b 1X4X5X*XC t.r.J l.3X6X8X7X6X2X5.% L I L 8.t.t.9.L I K 7.t.t.9.K L I I L I ",
"t.7.I I P I I P 6.r.y.r.U L I S > 1 > =.7X8X8X5X..I M 5X8X8X;XC t.J *X7X8X8X8X8X8X8X7X&Xg I I 7.y.y.9.I I L 7.y.y.9.I I I I I I ",
"r.6.L G G P I P I r.r.w.U L I S , 1 , =.7X8X8X8X5.S M 4X8X8X;Xm 9.=.6X8X8X8X,X>X8X8X8X6Xo.K K 6.9.w.8.L I L 6.e.t.8.K K K I I I ",
"L G 1 1 1 6.w.w.7.K I I 7.r.9.7.G K S ,.7X8X8X8X1XI ..4X8X8X;X: S %X8X8X8X4XM b 4X8X8X8Xl.* f h C 1 C I I I I I I K 1 1 1 I e.9.",
"I S , 1 1 6.t.t.8.L I K 9.t.t.9.I I I ,.7X8X8X8X5X@.M 5X8X8X;X: C ;X8X8X8X3Xm B 3X8X8X8X=X$ < , , , 1 L I I I I I S 1 , , I y.y.",
"I A , , , 6.t.y.9.K I L 9.y.y.9.K I K 3.7X8X8X8X8X5.2 4X8X8X;X; Z >X8X8X8X3Xm B 4X8X8X8X;X# , , , 1 1 K I I I K I S 1 1 > I y.y.",
"e.6.C C C 9.t.t.8.I I I 6.7.7.7.:.:.:.,.6X8X8X8X8X,X@ 5X8X8X;Xm J >X8X8X8X3X3 M 3X8X8X8X;Xh U S C C S 9.r.9.r.r.r.8.Z C C U y.t.",
"{.p.I I L 9.t.y.8.I I I I K I &.%X%X%X3.6X8X8X8X8X4X .4X8X8X;XI 0.,X8X8X8X3X- 2 4X8X8X8X:X7.{.9.I I 7.h.{.{.{.{.{.d.I I L 7.y.t.",
"{.p.I I I 9.y.t.8.I I I I I I &.%X&X%X;.7X8X8X8X8X8X*X5X8X8X;XU 0.,X8X8X8X3X- 2 3X8X8X8X>X%.{.9.K I 7.h.{.{.{.{.{.d.I I I 7.y.t.",
"[.u.I I L 7.w.t.7.L I I L L K &.l.l.5.3.7X8X8X8X8X8X7X8X8X8X;XI 8.,X8X8X8X3X; 2 3X8X8X8X>XU [.9.I U 7.d.h.h.[.h.[.a.I I I 7.w.e.",
"y.8.K I I I I I U w.9.9.A f , C $.&.#.>.7X8X8X1X4X8X8X8X8X8X;XD J ,X8X8X8X3XX.X.3X8X8X8X:Xg U y.d.d.a.t.y.t.y.t.y.9.I I I I I L ",
"t.8.L I I I I I U y.t.e.A , , h L L K ;.7X8X8X*X=X8X8X8X8X8X;XZ J ,X8X8X8X3XX.O.3X8X8X8X:X< L u.{.{.f.y.t.y.e.y.t.9.I I I L I K ",
"y.8.L L K I I I U y.y.e.C > > C I L K >.7X8X8X*XO.8X8X8X8X8X;XA K ,X8X8X8X3XO.O.3X8X8X8X;X< K u.{.{.d.e.y.e.y.y.y.9.I K I I I I ",
"6.6.6.6.6.S C A S 6.6.6.U 6.6.6.9.9.9.>.7X8X8X*X@ 4X8X8X8X8X;X1 A >X8X8X8X3X....3X8X8X8X:XS 9.u.s.a.u.y.y.e.9.6.7.7.U 6.6.G A A ",
"I U t.t.e.C , , C K I I p.{.{.{.{.{.[.;.7X8X8X=X% ,X8X8X8X8X;X= Z ;X8X8X8X3Xm B 3X8X8X8X;X9.{.u.e.t.e.y.e.y.U P I I t.t.t.S > , ",
"L U t.t.t.C , 1 h L I I a.{.{.{.{.{.[.>.7X8X8X=X> 5.8X8X8X8X;X; A *X8X8X8X4XM M 4X8X8X8X*Xy.[.u.t.t.y.t.y.t.U I L I e.y.y.S , , ",
"L U w.t.w.C h 1 C I I I a.[.h.[.[.[.d.;.6X8X8X=XC o.6X8X8X8X;X: P ;.7X8X8X7X5.%X7X8X8X7X3.s.[.y.w.e.e.w.r.r.U I I U 9.t.e.S 1 h ",
"I I I I I 6.8.9.7.I I I 9.y.t.t.t.t.e.,.7X8X8X=XA g 2X8X8X8X;XJ s.n <X8X8X8X8X7X8X8X8X<XF y.t.U I I I #.#.#.I I I I I I I 6.8.9.",
"L I I I L 9.y.y.8.L L I 8.t.t.e.t.t.w.,.6X7X7X=XC C %X7X7X8X-XI {.A 2 ,X6X8X8X8X8X7X;X+.9.y.t.U I I K #.#.#.K I I I I I I 6.y.y.",
"G K I I I 7.y.y.7.I L L 7.t.t.t.t.t.w.#.j.j.4...S K 2 ;.;.3.@.9.{.G * . o.oX-X-X%X=.S e.y.y.t.U I L I #.#.#.K K K I I U L 7.y.y.",
"9.7.A A A I 7.7.6.6.6.6.r.y.t.t.t.t.r.e.e.w.7.K I L S A S K q.y.y.7.U U I U K K S K I U 6.7.6.G A A A J J K 7.q.q.9.S A C I 6.6.",
"h.r.1 1 > S I K 6.t.r.t.t.t.t.r.t.t.t.L K I I I I I 9.y.t.8.L I K a.{.{.{.{.{.{.K > > 1 L L L h : 1 1 L U L y.{.{.a.1 , , A U L ",
"h.r.> 1 1 S I I 6.r.y.t.y.t.t.y.t.t.t.U I I I I I K 9.y.y.8.I I I p.{.{.{.{.{.[.K , 1 1 L I I h 1 1 f K I I u.{.{.p.1 1 , A I I ",
"d.w.1 1 1 K I I 6.r.t.t.e.e.e.e.r.t.w.U K I I I K I 7.t.e.6.L I I u.[.[.[.[.[.g.K < 1 h I I I m 1 , 1 K I I y.[.h.p.C h 1 S L I ",
"9.9.y.a.a.6.I I 6.t.y.e.S h h C I I L 7.w.w.9.w.9.9.U I I U I I I 0.y.y.t.t.t.t.I G K #.5.5.5.&.G G L 9.w.9.w.y.y.y.p.s.s.7.I I ",
"9.r.d.h.h.6.K I 6.e.y.e.C , , h I I I 9.y.y.t.t.y.t.I I I I I I I 8.e.y.t.t.t.t.U I I &.%X%X%X-.L I I w.t.t.t.t.t.y.{.{.{.w.P P ",
"7.r.d.h.d.6.K I 6.e.r.r.C , , h K I I 8.t.t.t.t.y.t.U I L I I I I 8.y.t.y.t.t.t.U I L &.%X&X%X-.L I I t.y.t.y.t.t.y.h.{.{.7.K L ",
"P U y.u.y.7.I U 6.y.p.u.6.6.L L I I I r.u.a.t.7.8.7.I I L L A A A U 8.8.8.6.8.8.6.6.6.7.j.j.j.q.w.w.9.7.7.7.7.7.7.7.p.s.a.9.U U ",
"A S 7.8.9.9.r.r.y.h.{.{.{.{.{.p.I I I a.{.{.a.K L L I I I S > , , S I I I I I L 6.y.t.t.t.y.t.s.{.{.s.I I P I P I I w.w.t.w.w.w.",
"A J 8.8.9.9.w.w.y.g.{.{.{.{.{.p.K I I a.{.{.a.I I I I I I S > 1 , S I I L I I I 9.y.t.t.t.t.r.s.{.{.s.I I I I I I I t.t.t.t.w.9.",
"Z S U 7.7.9.9.9.y.g.g.g.h.h.g.u.L I K a.[.[.u.I I I I I I S 1 1 1 S I I I I I I 6.r.w.w.t.t.r.a.{.h.s.I I I I I I I 9.w.9.9.w.w.",
"C h > > 1 $.9.w.7.$.I 7.G S S C 1 1 h 8.y.t.y.s.s.s.7.I I I 8.8.7.u.d.f.y.I I K A C h F k.l.5.i.t.t.r.P I I I I I G C k h I r.9.",
"C < % * * I 7.r.6.G P K h , , > , 1 1 6.t.t.u.{.{.[.6.I I U t.y.y.d.{.{.a.I I I h , , D oX&X%Xi.t.t.w.I P I P I I S : < : K w.9.",
"k < * * - I 7.7.6.G I K 1 1 , , < f , 8.y.t.u.{.{.[.8.I I U y.y.r.d.{.{.a.I I I C , , ..oX%X&Xi.y.y.w.K I I I K I S < : : K 9.9.",
"< - . . . Z #.J D < m 1 - - % * - - - F $.#.%.q.t.q.J m B D P $.#.0.q.q.7.m m m ; % % 2 1.2.1.@.$.#.#.m m m Z D D 1 - % % m #.J "
};
