/* XPM */
static char *result[] = {
/* columns rows colors chars-per-pixel */
"64 64 209 2 ",
"   c #273216",
".  c #3E2E23",
"X  c #263421",
"o  c #293624",
"O  c #2C3C26",
"+  c #2E3E29",
"@  c #3D3129",
"#  c #432D1F",
"$  c #482F21",
"%  c #453225",
"&  c #4C3423",
"*  c #473529",
"=  c #4A3A28",
"-  c #513624",
";  c #563A27",
":  c #583C27",
">  c #563C28",
",  c #5A3E29",
"<  c #4D3D32",
"1  c #513F31",
"2  c #274513",
"3  c #2B441B",
"4  c #2F4C1C",
"5  c #2F5516",
"6  c #34541E",
"7  c #33581A",
"8  c #3B671D",
"9  c #2E4027",
"0  c #2F4129",
"q  c #324E20",
"w  c #32432A",
"e  c #365422",
"r  c #385724",
"t  c #395B24",
"y  c #3A5B24",
"u  c #3D6324",
"i  c #3F6923",
"p  c #3F6128",
"a  c #4E4627",
"s  c #534427",
"d  c #554529",
"f  c #5D412C",
"g  c #544D2A",
"h  c #5B4A2E",
"j  c #4E5929",
"k  c #54522A",
"l  c #59512D",
"z  c #555A2B",
"x  c #585B2E",
"c  c #4B423A",
"v  c #534234",
"b  c #5C4533",
"n  c #54483B",
"m  c #5B493B",
"M  c #575832",
"N  c #62442E",
"B  c #654731",
"V  c #664831",
"C  c #6C4C33",
"Z  c #644C3A",
"A  c #6A4F3B",
"S  c #714F35",
"D  c #6A5935",
"F  c #6E523C",
"G  c #735137",
"H  c #785437",
"J  c #765439",
"K  c #795539",
"L  c #7D593C",
"P  c #426A27",
"I  c #42652B",
"U  c #436A29",
"Y  c #456D2A",
"T  c #56672E",
"R  c #566B2D",
"E  c #47722A",
"W  c #4A742C",
"Q  c #4D7C2D",
"!  c #52782A",
"~  c #4D6B31",
"^  c #5B6432",
"/  c #556B31",
"(  c #4D7631",
")  c #4E7A31",
"_  c #557634",
"`  c #5E7335",
"'  c #527C33",
"]  c #5B7D3A",
"[  c #696B3E",
"{  c #4F4945",
"}  c #554C44",
"|  c #5C4E43",
" . c #514C49",
".. c #5B514A",
"X. c #595756",
"o. c #645345",
"O. c #69584B",
"+. c #735641",
"@. c #775942",
"#. c #7B5C43",
"$. c #765D4A",
"%. c #685D55",
"&. c #79624F",
"*. c #6D635B",
"=. c #796453",
"-. c #75675C",
";. c #5E5F60",
":. c #656464",
">. c #6A6968",
",. c #726A64",
"<. c #79726D",
"1. c #7D7976",
"2. c #815B3E",
"3. c #855E41",
"4. c #876042",
"5. c #8B6344",
"6. c #856349",
"7. c #8D6A4E",
"8. c #906747",
"9. c #926847",
"0. c #916748",
"q. c #966B49",
"w. c #996D4B",
"e. c #9D714E",
"r. c #8D6E56",
"t. c #9E7451",
"y. c #A1734F",
"u. c #A37551",
"i. c #A77853",
"p. c #AC7B55",
"a. c #AF7E58",
"s. c #B07E57",
"d. c #B07F58",
"f. c #877568",
"g. c #837B74",
"h. c #827E7B",
"j. c #52842E",
"k. c #558B2E",
"l. c #55942C",
"z. c #57992D",
"x. c #548234",
"c. c #568B32",
"v. c #598D35",
"b. c #598839",
"n. c #579032",
"m. c #599333",
"M. c #5E9C35",
"N. c #5D9339",
"B. c #5F9938",
"V. c #66813F",
"C. c #609E37",
"Z. c #61963C",
"A. c #629C3B",
"S. c #669B3C",
"D. c #60A037",
"F. c #65A23C",
"G. c #68A73E",
"H. c #678A43",
"J. c #6A9344",
"K. c #689544",
"L. c #6B9B43",
"P. c #76984D",
"I. c #799A53",
"U. c #6BA442",
"Y. c #6DAA43",
"T. c #6EA148",
"R. c #75A24C",
"E. c #7AA64D",
"W. c #73AD4B",
"Q. c #7CAA4F",
"!. c #73B249",
"~. c #7BA352",
"^. c #7DAC52",
"/. c #7EB855",
"(. c #809D53",
"). c #B4825A",
"_. c #B9855D",
"`. c #82AB57",
"'. c #84B255",
"]. c #86B259",
"[. c #8AB55D",
"{. c #8EBB5E",
"}. c #84807E",
"|. c #8EBB60",
" X c #91BC63",
".X c #80C056",
"XX c #94C264",
"oX c #9AC96A",
"OX c #848383",
"+X c #8A8682",
"@X c #8A8988",
"#X c #918E8B",
"$X c #94908D",
"%X c #989695",
"&X c #9D9B99",
"*X c #A19F9D",
"=X c #A1A09E",
"-X c #A8A6A5",
";X c #ACABAA",
":X c #B0B0AF",
">X c #B5B4B4",
",X c #BAB9B9",
"<X c #C4C3C3",
"1X c #CDCDCD",
"2X c #D7D7D7",
"3X c #E1E1E1",
"4X c #ECECEC",
"5X c #F4F4F4",
"6X c #FEFEFE",
/* pixels */
"X X o o o o O o o O o o O o O o X X X O O 9 O 9 9 O 9 9 0 9 9 0 0 0 w w w w w w w w + O O O O O w w O w w O 9 w O O O w w O + + ",
"    3 3 3 9 4 q 3 q q q q q 6 3 2 2 2 2 4 5 4 6 7 6 6 e e e e e t t p p p p I I r r t 6 7 7 6 7 y y 6 7 6 7 6 7 7 6 e t r e r r ",
"4 4 6 r y r p p r p p p t p u e 5 5 5 7 u 8 u i U P P E Y i U E E Y ( ' ( ( ] ' W W Y P P i P P W W U U Y Y P P P P I ~ Y I Y ~ ",
"t y p p p p p p p W ( Y Y E E i 8 8 8 i E E E E Q E Q j.j.) j.x.x.x.b.b.b.] b.b.Q Q ) W E Q E W ' ' ! ' x.j.! ! ) Q ' x.x.( ) ( ",
"~ ~ / ] _ ( ) ) ) x.b.' x.c.x.j.j.j.j.x.v.v.k.k.c.n.v.Z.Z.K.P.~.R.P.~.~.K.v.n.n.k.n.m.k.c.n.v.j - = a S.J.S.Z.S.J.J.J.P.J.b.B.N.",
"] b.H.H.H.] v.v.c.N.K.B.N.B.B.v.M.M.N.N.F.F.C.M.D.M.F.!.!.!.[..X|.]. X X~.B.D.D.m.C.C.C.A.G.G.^ , - k `.'.`.E.'.Q.E.~.].^.K.B.L.",
"] ] H.J.H.b.b.N.b.Z.U.Z.N.A.A.N.N.M.C.N.S.G.M.M.D.D.U.!.!.W.].XX|.].|.|.W.M.D.M.M.D.D.M.A.G.G.x - : g `.`.`.E.(.Q.E.`.].^.U.U.F.",
"( ' H.J.H./ j j ~ K.K.K./ T ~ ~ m.m.v.k.m.m.j.R R R K.^.^.^.].[./.^././.T.F.F.B._ R R _ A.F.F.x , , g L.S.S.S.S.S.L.^.[.`.V./ / ",
"Q x.I.I.I.d $ $ M I.E.~.g & - g z.C.n.k.l.z.! - ; ; (. XXX].{. X|./././.!.W.!.W.x - ; g U.Y.Y.x : : g F.G.F.C.F.F.Y.|.XXXX[ & - ",
") b.I.^.~.h $ & M ^.`.~.l - - j M.M.m.l.l.z.! ; : : (.oXXX[.XXXX|.^..X.XW.!.!.!.^ : : l Y.!.!.^ : , g F.Y.F.C.F.F.G. XoXoX&.- ; ",
"W ' P.I.I.n % * k P.I.I.l - - k v.v.c.j.k.k.! ; : ; P.|.[.`.].].^.^.W.W.L.U.G.G.x : : g S.U.T.x - ; g F.G.A.N.C.Z.S.[. X|.[ > > ",
"% = = < a c  . .c a d d d B N > d s s d s s s V G V h h f ^ Y.Y.U.^ g b z Z.C.C.k : , , h d d & & - a F.U.U.^ s s d h h h } ..X.",
"$ $ & & & { ;.;.{ - - ; , S S f ; : : : : : : C K S ; ; : x Y.Y.Y.M - : k C.C.C.z ; : : : : ; & - : g U.!.!.^ , , , : : - } >.>.",
"$ & & & & { ;.;.{ - - - N S S f ; , : : : : , S K S : ; - x Y.Y.Y.z , - g C.C.C.z ; : : : : ; - - : g Y.!.!.^ - : - : , , } :.>.",
"V f s s , m o.o.Z N V V V G H B & - - f B B B S K S m } n m ` ` ` a & & a R R R s , f d f f N V S S D ` ` ` D H H G C B V o.%.O.",
"q.5.K L 2.S S S J 3.5.3.J J J C ; - ; L 5.8.3.J K K %.:.:. .; ; - & ; - $ ; ; ; f C G G S G S 3.q.q.3.: : - 5.d.).u.5.5.5.L K K ",
"u.0.4.4.4.G C G K 0.0.0.H G J C ; : , 3.q.w.3.K K K *.>.>...: : , & ; ; - - : : f G K K K H J 5.w.q.3., : : 0._._.a.q.q.q.L K K ",
"t.0.4.4.6.C C C K 3.0.0.L K #.S : : : 3.0.0.3.K K K %.:.:..., , , & , ; - ; ; - f F J J G J S 4.q.w.5., , ; 5.).d.p.q.q.q.L G G ",
"4.4.4.5.4.N > > f J K K e.s.p.w.G G G K K K K K K K f f d f V V C C S J B & - - ; , , , , , , L q.q.5.G J S 3.q.q.q.q.q.w.C , , ",
"4.4.5.5.5.N - > , J J H u._._.u.H K K H K K K K K J f , ; f J K K K K K C : : ; : : : , : : ; L w.w.5.K K H 3.w.q.q.q.q.q.C ; , ",
"3.5.5.5.5.N ; ; , H H H i._._.e.H K H H H G H K K K f - - f J J H K K K C ; ; - : ; ; ; , ; ; L w.q.5.J K J 3.w.q.q.q.q.q.C , > ",
"K L L 2.L V N f S 8.0.8.w.u.y.q.K K H #.3.3.L J K H L 2.2.4.5.9.0.L K K J 3.3.2.3.3.3.K N B N K 3.2.3.=.-.-.#.3.2.3.3.3.4.C N N ",
"S S G S S G J J 5.)._.).w.q.q.5.J K K 5.w.w.3.K K K i._._._._._._.3.J J 3._._._._._._.i.K K K K L H #.h.@XOX&.J K K J J K K K K ",
"S S S G G J J J 5.)._.).w.q.w.2.K K H 5.q.w.3.J K K u._._._._._._.4.J K 3.d._._._._._.i.K K K K H K $.OX@XOX=.J J K K K K K K K ",
"J J H K K K H J 3.s.s.p.q.q.q.5.J H H 3.0.9.4.J K K e.).).).).).d.2.G G 2.p.).).d.d.d.u.K K K K J K #.g.}.}.&.K L L K L K K K K ",
"u.i.p.i.u.3.J K L #.2.L 8.q.q.q.0.5.8.#.K K K K K K 5.w.q.q.q.q.q.C , , V q.q.q.3.L L L K K J 3.8.8.7.q.7.7.e.).p.p.p.p.p.5.K K ",
"d.d.d._.).3.J K K K H J 5.q.q.q.q.q.0.2.K K K K K J 5.q.q.q.q.q.0.C - , N q.q.q.L J K H K K J 3.q.q.q.q.w.q.i._._._._._._.5.J K ",
"d._.d._.).3.J J K H H G 5.w.q.q.q.q.q.K K K J S C G 5.w.q.q.q.q.q.N , - N 5.5.9.2.K K K J K K 5.w.q.q.q.q.q.u._._._._._._.5.G K ",
"i.e.q.q.q.2.K K K 3.2.2.2.2.3.L K H J J S b | ,.<.,...b G 5.q.q.q.K B v O.<.<.%.c ; V C K K H 4.q.q.9.4.4.2.9.y.u.y.w.q.w.3.J K ",
"q.3.J H G J K K 2.0.q.q.L H H C : : - B ..-X3X5X5X6X4X<X,.f q.q.q.F <.<X4X5X6X5X1X1.% d K K H 4.q.q.8.H J J 4.q.q.5.J J K K J K ",
"q.3.H H H J H J L 0.q.0.L H K C : : : n <X6X6X6X6X6X6X6X5X,.#.q.@.h.5X6X6X6X6X6X6X5X#X$ H K J 4.w.q.5.J K J 4.q.q.8.J K K K K K ",
"q.2.S H J J J H L 8.0.q.L H K C : : - <.6X6X6X4X&X<X6X6X6X,XZ q.o.2X6X6X6X>X=X5X6X6X4X..C H G 2.8.8.4.J K H 2.9.9.5.G J G J K K ",
"H C , , N 2.8.8.3.K K K 4.9.5.2.S G f &X6X6X6X-XV -.5X6X6X1X1 J <.6X6X6X4X| < 2X6X6X6XOX& , : , N f N J K K K K K J , , , K 5.8.",
"H C : , : 2.q.q.5.H K G 5.q.w.5.J K f ;X6X6X6X&X0.%.4X6X6X2Xm V +X6X6X6X3Xm v 1X6X6X6X=X# , : : : : : J K K K K K C : , ; L w.w.",
"K C , , : 2.q.w.4.J K J 5.q.q.5.J H f -X6X6X6X>XJ | +X#X#X1.1 B @X6X6X6X3XZ m 1X6X6X6X-X# : ; : : : , H K J J J K S , ; - K q.q.",
"9.2.N N N 4.w.q.4.J K H 2.3.3.3.=.=.o.#X6X6X6X5X+Xb f , > B 3.@.#X6X6X6X3Xn v 1X6X6X6X-Xd 2.2.C N B C 5.0.5.0.0.0.3.B N N 2.q.w.",
"_.y.K K H 5.q.q.5.J J H J J K $.OXOX1.*.4X6X6X6X6X>X .# ; S ).q.#X6X6X6X3Xc * 1X6X6X6X;X#._._.5.J H 3.d._._._._._.p.K K K 2.w.q.",
"_.y.J K G 5.q.q.4.J H K K J K &.OX@XOXo.%X6X6X6X6X6X3Xh.% C ).w.$X6X6X6X2Xn = 1X6X6X6X;X#._._.5.J K 3.d._._._._._.p.K K K 5.w.q.",
").e.J K J 5.9.9.4.J K K J J G @.I.1.1.r.Z +X4X6X6X6X6X6X*X< s.q.$X6X6X6X3X< < 1X6X6X6X;XK d.a.5.K K 3.a.d.d.d.).).u.K K K 3.9.8.",
"q.5.J H K K K K L 9.5.5.V , , N $.$.#.5.q.F *.<X6X6X6X6X6X%XA K #X6X6X6X3XX. .1X6X6X6X;X, 2.L q.p.p.u.q.w.q.w.q.w.5.K K K K K H ",
"q.4.H K K K K J L q.q.q.N : , N +.+.+.3.0.0.C % $X5X6X6X6X3Xo.H #X6X6X6X3XX.X.1X6X6X6X;X> J J t._._.p.q.q.q.q.q.q.5.K K K K K J ",
"q.4.G G K H K K L q.q.q.B - - N S 3.B n -.*.:.c   }.6X6X6X5X,.G #X6X6X6X3XX.X.1X6X6X6X-X> J J t._._.).q.q.q.q.w.w.8.G K K K K K ",
"4.2.2.2.2.C V V S 3.3.3.2.2.L 3.0.0.3.OX5X5X5X*X% c 2X6X6X6Xg.B #X6X6X6X2X..} 1X6X6X6X-XV 0.8.q.y.u.e.q.w.q.5.2.3.2.2.2.2.S V V ",
"J L q.q.8.N ; , , J J K u._._.).d._.w.h.6X6X6X-X> b 1X6X6X6Xh., @X6X6X6X3Xo.m 1X6X6X6X-X4._._.e.q.q.q.q.q.q.L J J K 9.q.q.S - : ",
"G 2.q.q.q.N ; , , H K K i._._._._._.t.<.6X6X6X:X= v 1X6X6X5X1.B 1.6X6X6X3X| v 1X6X6X6X$Xq._._.e.q.q.q.q.q.q.L K K H q.q.q.C , , ",
"H L 8.9.8.V , , N J K K u._.d.d.).d.i.%.4X6X6X3X,.@X5X6X6X5X%.S | 4X6X6X5XOX1.4X6X6X5X*.u.).).w.9.9.9.9.0.0.L K K L 5.q.9.C , , ",
"K K L H H 2.5.4.3.J H H 5.q.q.q.q.q.q.F ,X6X6X6X5X6X6X6X6X<X+.p.K &X6X6X6X6X6X6X6X6X>XZ q.q.q.L K K J +.@.+.J K K K K K H 2.5.5.",
"K H K H H 8.w.q.5.J K H 5.q.q.q.q.q.q.u.O.:X4X6X6X6X6X5X,X| u._.).v &X4X6X6X6X6X5X;Xo.5.q.q.q.L K J G +.+.+.G K K K K K K 2.w.q.",
"G H H K K 5.w.w.3.H J G 3.q.q.q.q.q.q.i.d.#.*.+X*X*Xh.%.@ V )._._.C $  .1.*X*X+X%.A 8.q.q.w.q.L K J J +.+.+.F J J J K L H 3.q.w.",
"5.3.V V V K 3.3.2.3.3.2.0.w.q.q.q.q.8.q.w.w.3.V N N b B S K w.w.q.3.K K C J G L J K H L 2.4.2.G V C V F J G 3.7.0.4.C V B H 3.3.",
").0.: : : C K G K q.q.q.q.q.q.q.q.q.q.L H H H K H H 5.q.q.5.J K J u._._._._._.).G - : , G H J f ; ; , G K H e._._.u.d : : V H H ",
"d.0.; : , C K K 2.0.q.q.w.q.q.q.q.q.q.L H H K K H H 5.q.q.5.H K J u._._._._._._.J , , f H K K f : , f J H H e._._.u., : : V K K ",
"p.8., , f S K H 2.9.w.w.0.9.8.8.0.0.0.L H K H H K J 3.q.0.3.K K J t.).).d.).d.d.G ; , d J @.J f , ; f J H J q.).d.y.N f , C H K ",
"5.8.w.u.e.2.K K 2.9.q.9.C f N N K K H 3.8.5.0.8.5.0.L K H L K K J 5.q.q.q.q.w.q.K G S @.1.1.1.$.C G G 5.9.5.q.q.w.q.u.i.i.3.H K ",
"4.0.a.d.d.3.J H 2.8.w.9.N : : f K K J 5.q.w.w.q.q.q.L H H H K K J 5.q.q.q.q.q.q.L L H $.OXOXOX&.H K K 9.q.q.q.q.q.w._._._.8.J J ",
"3.0.p.a.a.2.G G 2.9.9.9.N : : f J J J 5.q.q.q.q.q.q.K H K K K K K 5.w.q.q.q.q.q.L H H $.OX@XOX&.H H K q.q.q.w.q.q.w.d._._.3.G J ",
"J L q.w.w.3.K L 2.w.y.e.2.2.2.G K K K 0.u.e.0.3.5.2.K K K G B C C K 3.3.3.3.5.2.2.2.2.3.f.f.f.7.0.0.5.3.3.3.3.3.3.3.u.u.u.5.L L ",
"V C 3.5.5.8.0.5.w.d._._._._._.e.K H J u._._.u.J J J K K L C - : : V K J K K K H 3.q.q.q.q.q.0.i.)._.i.K H K K H K K 8.0.q.0.8.8.",
"V C 3.5.5.5.0.0.w.d._._._._._.y.H K H i._._.u.H H K K K K C : , , C K K K K K J 5.q.q.q.q.q.0.i._._.i.K K K K K K K 0.q.q.q.8.5.",
"V C L #.3.5.0.8.w.s.s.d.d.d.d.w.J J H u.).).t.K K K K K K C , , , C L K K K K J 2.q.8.8.q.q.q.u.).).u.K K K K K K K 8.8.5.5.0.8.",
"B f ; ; > @.3.8.3.2.@.3.S C V N d , f 3.q.q.w.u.i.u.2.K K K 3.3.3.t.p.a.w.K K K B N f Z g.h.g.r.w.w.0.K K K K K K G f N f K 5.5.",
"B > % & - J 8.3.3.S G G f : : : ; , : 2.q.q.e._._._.4.K H L q.w.q.p._._.u.K K K N ; : Z }.@XOXr.q.q.0.J K K K K K S - = - J 0.5.",
"f ; & % & J 5.3.K S J J , , : : ; , ; 3.e.q.e._._.).4.H K L q.q.q.p._._.u.K J K N : ; | }.OX@Xr.q.q.5.H K K K H H C > > ; G 8.5.",
"< * . % $ b F F Z 1 b , * % & & * * = A @.+.#.7.7.7.F V m V @.@.@.6.7.7.3.b b b * * * < :.>.:.O.@.@.+.b b b b Z b b % % % b F F "
};
