/* XPM */
static char *result[] = {
/* columns rows colors chars-per-pixel */
"64 64 213 2 ",
"   c #253B16",
".  c #3B2D23",
"X  c #263421",
"o  c #293624",
"O  c #2C3C26",
"+  c #2E3E29",
"@  c #3A332D",
"#  c #453225",
"$  c #473727",
"%  c #4C3423",
"&  c #4B3426",
"*  c #4D3B25",
"=  c #463428",
"-  c #4D3B2A",
";  c #513624",
":  c #563A27",
">  c #583C27",
",  c #553C29",
"<  c #5A3E29",
"1  c #493C33",
"2  c #274513",
"3  c #2B441B",
"4  c #2F4C1C",
"5  c #314D1E",
"6  c #2F5516",
"7  c #34541E",
"8  c #33581A",
"9  c #3B671D",
"0  c #2E4027",
"q  c #324E20",
"w  c #32432A",
"e  c #365422",
"r  c #385724",
"t  c #395B24",
"y  c #3A5B24",
"u  c #3D6324",
"i  c #3F6923",
"p  c #3F6128",
"a  c #4E4627",
"s  c #534427",
"d  c #554529",
"f  c #5D412C",
"g  c #544D2A",
"h  c #5B4A2E",
"j  c #4E5929",
"k  c #54522A",
"l  c #59512D",
"z  c #555A2B",
"x  c #585B2E",
"c  c #49433D",
"v  c #554335",
"b  c #5C4433",
"n  c #54463B",
"m  c #56493B",
"M  c #5C493B",
"N  c #575832",
"B  c #62442E",
"V  c #644731",
"C  c #664831",
"Z  c #6C4C33",
"A  c #634D3C",
"S  c #694E3A",
"D  c #714F35",
"F  c #6A5935",
"G  c #6E523C",
"H  c #735137",
"J  c #765439",
"K  c #795539",
"L  c #7D593C",
"P  c #426A27",
"I  c #42652B",
"U  c #436A29",
"Y  c #456D2A",
"T  c #56672E",
"R  c #566B2D",
"E  c #47722A",
"W  c #4A742C",
"Q  c #4D7C2D",
"!  c #52782A",
"~  c #4D6B31",
"^  c #586731",
"/  c #4D7631",
"(  c #4E7A31",
")  c #557634",
"_  c #5E7335",
"`  c #527C33",
"'  c #5B7D3A",
"]  c #696B3E",
"[  c #4A4745",
"{  c #544A43",
"}  c #5A4D44",
"|  c #534E4A",
" . c #5D524A",
".. c #585654",
"X. c #5D5C5C",
"o. c #624F42",
"O. c #63554A",
"+. c #685649",
"@. c #735641",
"#. c #765942",
"$. c #7B5C44",
"%. c #765D49",
"&. c #645B53",
"*. c #695E55",
"=. c #79624F",
"-. c #6B615A",
";. c #6C6158",
":. c #796352",
">. c #79685B",
",. c #5E5F60",
"<. c #656464",
"1. c #6B6866",
"2. c #6B6A6A",
"3. c #736C67",
"4. c #7C726A",
"5. c #797775",
"6. c #815B3E",
"7. c #855E41",
"8. c #876042",
"9. c #8B6444",
"0. c #85644A",
"q. c #8C694F",
"w. c #906747",
"e. c #926847",
"r. c #926748",
"t. c #966B49",
"y. c #996D4B",
"u. c #9D714E",
"i. c #916F55",
"p. c #A1734F",
"a. c #A47551",
"s. c #A77853",
"d. c #AC7B55",
"f. c #AF7E58",
"g. c #B07E57",
"h. c #B07F58",
"j. c #83756A",
"k. c #877668",
"l. c #837A74",
"z. c #827E7B",
"x. c #52842E",
"c. c #558B2E",
"v. c #55942C",
"b. c #57992D",
"n. c #548234",
"m. c #568B32",
"M. c #598D35",
"N. c #598839",
"B. c #579032",
"V. c #599333",
"C. c #5E9C35",
"Z. c #5D9339",
"A. c #5F9938",
"S. c #609E37",
"D. c #61963C",
"F. c #629C3B",
"G. c #669B3C",
"H. c #60A037",
"J. c #65A23C",
"K. c #68A73E",
"L. c #678A43",
"P. c #6A9344",
"I. c #689544",
"U. c #6B9B43",
"Y. c #76984D",
"T. c #799A53",
"R. c #6BA442",
"E. c #6DAA43",
"W. c #6EA148",
"Q. c #75A24C",
"!. c #7AA64D",
"~. c #73AD4B",
"^. c #7CAA4F",
"/. c #71B147",
"(. c #73B249",
"). c #7BA352",
"_. c #7DAC52",
"`. c #7EB855",
"'. c #809D53",
"]. c #B4825A",
"[. c #B9855D",
"{. c #82AB57",
"}. c #84B255",
"|. c #86B259",
" X c #8AB55D",
".X c #8EBB5E",
"XX c #90BF5F",
"oX c #85807D",
"OX c #8A8079",
"+X c #8EBB60",
"@X c #91BC63",
"#X c #80C056",
"$X c #94C264",
"%X c #9AC96A",
"&X c #848383",
"*X c #8B8887",
"=X c #928F8C",
"-X c #9B9895",
";X c #A19E9D",
":X c #A9A8A7",
">X c #B0AFAD",
",X c #B5B4B4",
"<X c #BBBBBB",
"1X c #C0C0BF",
"2X c #C4C4C4",
"3X c #C8C8C7",
"4X c #CBCBCB",
"5X c #D3D3D3",
"6X c #DBDBDB",
"7X c #E5E5E5",
"8X c #EBEBEB",
"9X c #F4F4F4",
"0X c #FEFEFE",
/* pixels */
"X X o o X o o o o O O O o o O o X X X o 0 O O O 0 O 0 0 0 0 0 0 0 0 w w w w w w w w + O O O O O w w O w w w O 0 O O + w + + + + ",
"      3 0 3 q 4 3 q q q q q 5 3 2 2 2 2 4 6 4 8 8 e 7 7 t e e t t t p p y I ~ I r y y 7 7 8 7 7 y y 7 8 7 8 8 7 8 7 r r r e r r ",
"4 4 e r t r y p r y p p y u u t 6 6 8 8 u i u i Y i Y P Y i i Y Y Y / / / / ' / E E Y P P 9 P P W W U Y Y Y U U P P U E Y I Y Y ",
"t t j I I p I p I / / Y Y E Y i 9 9 9 i E E E E Q W Q x.n.( n.m.n.n.N.Z.N.' N.N.( ( Q W E Q Q E ) ` W ` ` x.( ! ( ( ) n.n./ ` / ",
"~ ~ ) ' ) ~ ( x.( ( N.n.n.m.n.x.x.x.x.x.M.M.c.c.m.B.N.A.I.A.Y.Q.T.I.).).I.B.B.B.m.M.V.c.m.M.B.k ; a g G.P.P.D.G.P.P.P.P.P.N.Z.M.",
"N.' L.L.L.N.N.M.N.Z.I.Z.Z.A.A.M.A.C.A.Z.J.J.C.C.H.H.J./.(.~.|.+X+X+X@X@X).A.A.A.v.S.H.S.C.K.K.T : : l }.}.{.!.}._.)._.|.{.U.J.U.",
"' ' L.P.L.N.N.N.M.D.U.A.A.A.F.Z.C.Z.C.Z.J.R.S.S.H.H.R.(.(.(. X$X$X_.+X+X~.F.H.H.C.H.H.C.J.K.R.x : : l '.^.!.!.'.^.!.{. X_.U.J.R.",
"/ ` L.L.L.^ j I ~ I.I.P.) T T ~ V.V.m.c.V.V.x.R R R I._._._.|.|.|._.`.`.W.H.H.H.) R ^ ) F.J.J.x : : g G.K.G.G.G.G.U.).|.{.L.R R ",
"( ` T.).T.a % # N ).).T.k % ; k V.C.v.c.v.b.! ; : : '.@X@X|..XXX+X`.`.`.~.~.(.~.x ; ; l R.E.E.x > > g J.E.J.S.H.K.K.+X%X@X] * % ",
"x.N.T.).).d % % N ).{._.l ; ; k C.C.V.v.b.b.! > < > '.%X%X X$X$X+X`.#X#X~.(.(.(.^ > > l E.(.(.^ ; > l J.K.J.S.G.K.R.@X%X%X%.; ; ",
"W ` Y.T.T.m = = N Y.Y.T.l : ; k M.V.M.x.c.c.! ; > : Y. X X{.}.|._.Q.~._.W.R.K.K.z : > l R.R.W.x ; > k J.K.J.D.S.S.G.|.@X@X] , , ",
"$ $ - * a c | | c s s s , B B , s s s s s s > C D Z h h f ^ E.E.E.T v g k S.S.S.z : : , d d d % % ; a G.R.R.^ , s d B h h } ....",
"# # % % % [ ,.X.{ ; ; ; f Z H f : > > > : < : D K Z : : : z E.E.E.z > > g C.S.S.z : > > > > > ; ; > g E.(.(.^ : > > > > ; { 1.2.",
"# % % % % [ <.X.{ ; ; ; f H H f > > > > < : : D J D < < , x E.E.E.x ; > k C.H.H.z : > > > > ; ; ; > g E.(.(.^ : > > > > > } <.2.",
"C f ; > f M o.O.M V V V Z H H B ; ; ; f C C C D #.D M n n m _ _ _ a % % a T R T s > < f f B f C D D F _ _ _ F J K J Z V C S &.*.",
"t.9.K L 6.Z D H H 8.9.8.J J J Z : ; ; 6.7.w.7.H K J *.1.<. .> ; : % ; ; % ; > : f D D H D H D 7.t.y.7.: > ; 9.g.f.s.9.9.9.K K K ",
"p.t.8.8.8.H D D K w.w.e.K K H Z > > < 6.y.y.9.K K K -.2.2. .> > > % : : % > > > V J J J K K K 8.y.t.7.< < > w.[.[.g.t.t.t.L K K ",
"u.t.8.8.8.G D Z 6.6.9.9.K 6.6.D > > > 6.r.r.6.K K K *.<.-.| , > > ; , , ; ; : ; < D J J J H H 6.t.t.7.< < > 9.].g.d.t.t.t.L H H ",
"7.8.8.9.8.f : : f K J J y.g.g.y.D H D K K K K K K K b f v f C Z Z Z H H V ; % ; : < f < > < > L t.t.w.D D D 7.y.y.t.t.t.t.H > > ",
"7.8.8.9.9.h : : f J J J a.[.[.p.K K K K K K K K K H f > ; B J J K K K K Z > > > > > > < > > > L t.t.w.K K J 7.y.t.t.t.t.t.Z > > ",
"7.9.9.9.9.B : : < J H J s.[.[.p.K K K H K K K K K J f > ; f J J K K K K Z : : ; > : : : , , , L y.t.9.J J J 7.y.t.t.t.t.t.D ; > ",
"K K L 6.L C B f D w.e.w.y.s.s.e.K K K 6.6.6.K K K J K 6.6.7.w.e.e.L K K J 7.7.6.7.7.7.J V V B K 7.7.7.>.>.>.$.7.7.7.6.7.7.S B B ",
"D D D H H H J J 9.[.[.].t.t.t.8.D L K 9.t.t.7.K K K s.[.[.[.[.[.].8.J J 7.[.[.[.[.[.[.s.K K K K K K $.z.&X&X:.J K J K K K K K K ",
"D H H H H H J J 8.].[.].y.t.y.8.K K K 9.y.t.9.K K K s.[.[.[.[.[.[.8.J K 7.h.[.[.[.[.[.s.K J L K K K $.&X*X&X:.J K K K K K K K K ",
"J J J K K K K H 7.g.g.g.y.t.t.8.K K J 6.e.e.8.J K K p.].].].].].g.6.J H L ].].].].f.].u.K J K K K K %.5.oXoX=.K L K K L K K K K ",
"a.s.s.d.d.6.K K K 6.6.K 9.t.t.t.9.w.9.6.L K J J K J 9.y.t.t.t.t.t.Z > > C t.t.e.7.L L L K K J 8.w.w.t.t.q.t.u.].d.f.d.d.f.8.K K ",
"h.h.h.h.].6.K K K K J J 9.y.t.t.t.t.t.L K K K K K K 9.y.t.t.t.t.e.Z ; > C e.t.t.L J K K K K J 8.t.t.t.t.y.t.a.[.[.[.[.[.[.9.J K ",
"[.h.[.[.].6.H K K K J J 9.t.t.t.y.t.e.L K K J J K J 9.t.t.t.t.t.t.B > > V e.t.t.$.K K L K K J 8.t.t.t.t.t.t.s.[.[.[.[.[.[.9.J K ",
"a.p.t.t.t.6.K K K 6.6.6.6.6.6.6.> M M M M b J V m M A o.M Z y.K +.M m M d V } A v v v v M M B 8.y.t.e.7.6.7.t.p.a.p.y.t.y.6.J K ",
"r.7.D K H K K K 6.r.t.t.L K J Z c 3X6X6X5XO.J M <X6X6X6X<Xv e.&.4X6X6X5X&.{ 4X6X6X6X6X6X6X:Xd 8.t.t.9.J J J 7.t.t.9.J K K K K K ",
"t.9.K K K K K H 6.t.t.e.L J K Z 1 7X0X0X9X-.Z } 7X0X0X0X7XO.9.-.9X0X0X8X}  .8X0X0X0X0X0X0X2Xv 7.t.t.w.K J J 8.t.t.w.J K K K K K ",
"r.6.D K D K K K K r.r.e.L K K Z 1 5X0X0X0X1.S O.8X0X0X0X9XO.L oX0X0X0X7Xo.o.8X0X0X0X0X0X0X2Xd 6.w.w.8.J K K 7.e.e.8.H H J J K J ",
"K Z > B B 6.w.w.6.K K K 8.w.r.6.- <X0X0X0X*X9.l.0X0X0X0X9XO.f *X0X0X0X5Xv O.8X0X0X0X,XoX*X1.# f f f B J K K K K K H d < < K r.w.",
"K Z > > > 6.t.t.9.H K K 9.y.y.8., :X0X0X0X-X8.oX0X0X0X0X9X1., ;X0X0X0X2X- O.7X0X0X0X1., ; % ; > > > > J K K K K K H > > : K y.t.",
"K Z > > > 6.t.y.8.K K H 9.t.t.8.f -X0X0X0X;XZ -X0X0X0X0X0Xz.- <X0X0X0X,X, +.8X0X0X0X3.f , ; > > > , f J J J J J J D , , : K t.y.",
"9.6.B B B 8.t.t.8.K K L 6.6.7.7.O.oX0X0X0X;X, >X0X0X0X0X0X*X- 2X0X0X0X-XZ } 8X0X0X0X2.C L L 6.Z B B Z 9.w.w.w.e.w.8.V B B 6.y.t.",
"[.p.K K J 9.t.y.8.K K K K J H =.5.5.9X0X0X,X@ <X0X0X0X0X0X*X1 5X0X0X0XOX7.} 8X0X0X0X=X .;.O.u.9.J K 6.].[.[.[.[.[.d.K J J 6.y.y.",
"[.p.K K J 9.t.t.8.K K K K K K =.z.5.9X0X0X3X1 2X0X0X8X0X0X-X{ 7X0X0X0Xz.r.| 8X0X0X0X9X9X9X-X9.9.J K 6.].[.[.[.].[.d.K J K 6.t.y.",
"].p.K K K 8.w.w.8.K K J H J H #.5.X.7X0X0X5Xc 6X0X9X&X8X0X>X| 8X0X0X9X3.t.} 7X0X0X0X0X0X0X:X8.9.K K 6.f.].].].].g.s.L J J 6.e.e.",
"e.8.J K K K K K 6.9.9.9.C f > B @.} 6X0X0X5X[ 7X0X6X..8X0X1X[ 9X0X0X8XO.0...8X0X0X0X9X7X7X-Xb y.d.d.s.t.e.t.t.t.t.w.J J L L J L ",
"t.8.J K K K J J 6.e.t.e.C < : B K M 4X0X0X7X..8X0X5X@ 5X0X2XX.9X0X0X7X+.q.X.8X0X0X0X&X} o.v Z u.[.[.f.t.t.t.t.t.t.9.J K K K K J ",
"y.8.J J J K K K 6.t.t.e.B : : B J , ,X0X0X8X5.8X0X2XX 1X0X4X5.0X0X0X4XA q.X.8X0X0X0X3.K J K H u.[.[.f.t.t.t.t.y.t.w.J J J K K K ",
"6.6.6.6.6.Z C C Z 6.7.6.6.6.6.6.9.G :X0X0X9X2X0X0X;X. >X0X6X-X0X0X0X1Xf $.&.8X0X0X0X3.H 9.w.w.y.a.a.p.t.y.t.9.6.6.6.6.6.6.D C C ",
"K 6.e.t.e.B > > B J K J p.[.].[.[.u.-X0X0X0X0X0X0X=X% =X0X9X9X0X0X0X>Xf J O.7X0X0X0X2.G ].[.].u.e.t.e.t.y.e.L J L K e.t.t.Z > > ",
"H 6.t.e.e.B > > h J J K s.[.[.[.[.a.l.0X0X0X0X0X0X4.V 5.0X0X0X0X0X0X=XB J O.8X0X0X0X=X .>.>.@.u.t.t.t.t.t.t.L J K K e.t.t.Z : > ",
"K 6.e.e.e.B B < B J K K u.].g.[.].s.j.9X0X0X0X0X9X&.Z &.9X0X0X0X0X0XoXC J O.8X0X0X0X9X8X8X6X;.y.e.e.e.e.e.t.L K K K w.e.w.D B > ",
"J J K K 6.6.8.8.6.J K J 9.y.t.t.e.e.;.9X0X0X0X0X8Xo.h n 7X0X0X0X0X0X3.; f O.8X0X0X0X0X0X0X8X-.6.K K K @.@.@.K K K K K K K 6.8.9.",
"J K K K H 9.y.y.9.J K J 9.t.t.t.t.t.} 6X9X9X9X0X4X1 < = 2X9X9X9X9X8X| ; f O.7X9X0X9X0X9X0X7X;.L K K J J @.K H K K K K L K 6.t.t.",
"H J J J J 9.t.u.6.6.J J 6.y.t.t.t.t.Z >.j.j.4.3.+.f f = | >.j.k.j.-.. ; < v >.3.3.4.4.j.j.3.M 6.K J K @.@.@.G J J K K K K 8.y.t.",
"e.6.C C C L 6.6.6.6.6.6.e.y.t.t.t.t.e.w.t.t.8.H H J Z Z Z H w.w.e.6.L L $.9.8.8.K H D K L L 6.Z V C C G H H 7.9.e.8.C Z C J 8.6.",
"].w.> > : D K D 6.e.t.t.t.t.t.t.t.t.t.K H J J K K K 9.y.t.9.H H J a.[.[.[.[.[.].H > > < H H H B > ; > J K K y.[.[.a.f , > C K K ",
"g.w.> > > Z K J J t.t.t.y.t.t.t.t.t.t.K K K K K K J 9.t.t.9.K K J a.[.[.[.[.[.].H > < < K K H B > , f J K K p.[.[.a.> > > C K K ",
"g.9.> < < D K K 6.t.t.t.e.e.e.e.e.e.r.6.K J K J J J 9.e.e.9.K K J u.[.].].].].].H > > f L L K h f , f K K J y.].h.a.B f < Z K K ",
"9.w.u.p.p.6.K K 6.t.t.t.Z f f B K K K 7.w.9.w.w.9.9.K K J K K L J 9.t.t.y.e.t.t.K D H @.5.5.5.%.Z H H 9.w.9.e.t.t.t.a.s.s.6.K K ",
"8.e.g.g.g.6.K K 6.6.t.e.B > > f J K J 9.t.t.t.t.y.t.K K K K K K J 9.t.t.e.y.t.e.L K K %.&X&X&X:.K K K e.t.t.t.t.t.y.].[.].9.H J ",
"6.t.g.g.g.6.D K 6.t.e.e.B > > f J K J 9.t.t.t.t.y.e.L K K K K K K 9.t.t.y.t.y.t.L J K $.&X&X&X:.J K K e.y.t.y.t.t.t.].[.[.9.K J ",
"J L t.u.y.7.L L 6.p.p.p.6.6.6.D J K K w.u.p.t.7.8.8.K K K H C Z C L 8.8.7.7.8.7.6.6.6.7.k.k.k.q.9.9.8.7.7.7.8.7.7.9.p.s.s.9.L K ",
"C S 8.8.9.9.w.w.y.].[.[.[.[.].p.J K K s.[.[.p.J J J J K K Z : > ; Z K J K J K K 8.y.e.t.t.t.e.s.[.[.d.K K K J J K K e.e.e.e.e.w.",
"C Z 8.8.9.9.9.w.y.].].[.[.[.[.p.K K J s.[.[.p.K K K K K K Z > > > Z K J K K K J 8.y.t.t.t.t.t.s.[.[.d.J K K K K K K e.e.t.t.w.w.",
"C Z L 7.7.9.9.w.t.g.g.g.g.g.g.p.H J J a.[.].u.K K K K K K Z < > f Z K L K K K J 7.e.e.w.e.t.r.s.[.[.s.K J K K K K J w.w.9.9.e.9.",
"V < : > > $.9.9.7.L 6.$.D Z Z B < f f 8.t.t.u.s.d.s.6.K K K 8.8.7.u.d.d.y.J K J B B B S 5.z.5.i.t.t.9.K K K K K J H f B f K 9.9.",
"V , # % & J 7.w.7.D D H < > > > > > > 6.t.t.u.[.[.].8.J K L t.t.t.d.[.[.s.K K K B > ; A &X*X&Xi.t.t.9.K K K K J K H ; , : H 9.9.",
"B , % % & J 7.7.L D J J < > > > > < s 8.t.t.u.[.[.].7.K K L t.t.t.d.[.[.p.K K K B ; > M &X&X&Xi.y.y.w.K L K K K J Z , ; : H e.9.",
"- = . . # b @.G A , < b & # % % = = = A L #.$.q.q.q.G V V A @.L @.0.i.q.8.b b b - = = 1 <.2.<.%.#.@.@.b b b b b V b = = . b @.G "
};
